<svg width="257" height="141" viewBox="0 0 257 141" fill="none" xmlns="http://www.w3.org/2000/svg">
<path d="M8.25796 85.8805C9.00139 84.0201 9.80234 82.5157 10.6608 81.3672C11.5193 80.2187 12.5938 79.4628 13.8843 79.0996C15.161 78.7041 16.7065 78.869 18.5209 79.5941C19.3248 79.9153 20.1011 80.372 20.85 80.9643C21.585 81.5243 22.1892 82.112 22.6624 82.7273C23.1449 83.3196 23.4229 83.7903 23.4965 84.1393C23.5977 84.5527 23.4969 85.3381 23.1942 86.4956C22.8684 87.6439 22.4073 88.9645 21.8107 90.4574C21.5996 90.9856 21.2508 91.7918 20.7643 92.8759L27.31 95.4916L24.8319 101.693L5.19485 93.8455C6.08965 91.4064 7.11069 88.7514 8.25796 85.8805ZM18.1444 86.8348C17.9376 86.4858 17.3864 86.1324 16.4906 85.7744C15.3193 85.3063 14.3915 85.2286 13.7073 85.5411C13.0322 85.8307 12.4515 86.5841 11.965 87.8014C11.7998 88.2148 11.6553 88.6764 11.5315 89.1863L16.768 91.2789C16.8828 91.0584 17.0732 90.6151 17.3394 89.9491C18.0461 88.1806 18.3145 87.1425 18.1444 86.8348Z" fill="#141B34"/>
<path d="M40.2839 71.7343C38.549 74.1425 36.6859 75.5438 34.6947 75.9383C32.6979 76.2983 30.4753 75.5964 28.027 73.8326C26.6824 72.864 25.5952 71.8978 24.7652 70.9342C23.9297 69.936 23.4414 69.1117 23.3002 68.4613C23.111 67.6238 23.2867 66.4702 23.8274 65.0002C24.3826 63.5102 25.0506 62.2234 25.8313 61.1397C27.6962 58.5509 29.5782 57.1022 31.477 56.7936C33.3759 56.485 35.5395 57.2054 37.9677 58.9547C40.5766 60.8341 42.0666 62.8068 42.4378 64.8727C42.809 66.9386 42.091 69.2258 40.2839 71.7343ZM36.827 69.1068C37.3908 68.3241 37.4885 67.6172 37.1202 66.9861C36.7317 66.3405 35.8352 65.5116 34.4304 64.4996C33.447 63.7912 32.6584 63.2993 32.0643 63.0237C31.4502 62.7337 30.9215 62.6425 30.4783 62.7499C30.0295 62.8229 29.6026 63.1403 29.1978 63.7022C28.6196 64.5049 28.3573 65.0171 28.411 65.2387C28.4358 65.5004 28.7834 65.9489 29.4536 66.5842C30.1238 67.2195 30.8603 67.8262 31.663 68.4045C33.0277 69.3876 34.0849 69.9511 34.8348 70.095C35.5991 70.2189 36.2631 69.8895 36.827 69.1068Z" fill="#141B34"/>
<path d="M64.0122 46.3787L58.7857 50.8844L51.5863 47.9311C50.8557 47.6139 50.2103 47.5661 49.6503 47.7877L55.0765 54.082L50.2714 58.2244L35.7369 41.3645L40.3724 37.0255L48.6328 46.6075C48.921 46.0326 48.9739 45.3175 48.7917 44.4622L47.4739 38.1039L52.7043 33.5459L53.7577 40.2792C53.9243 41.3437 53.9324 42.3001 53.7819 43.1483C54.6165 43.2452 55.7172 43.5371 57.0841 44.0242L64.0122 46.3787Z" fill="#141B34"/>
<path d="M76.5678 33.8358C77.1149 33.5477 78.1038 32.9571 79.5343 32.0641C79.7313 31.9604 80.0808 31.7483 80.583 31.428L82.8558 34.5499C81.5856 36.2251 79.6045 37.7714 76.9127 39.1888C74.3959 40.514 72.1249 40.8992 70.0997 40.3443C68.0964 39.7779 66.4206 38.2145 65.0723 35.654C64.3809 34.3409 63.8767 32.9851 63.5596 31.5867C63.2644 30.1768 63.2089 29.1159 63.3931 28.4039C63.5992 27.6805 64.2337 26.8153 65.2968 25.8083C66.3598 24.8013 67.5041 23.9751 68.7297 23.3298C70.6993 22.2926 72.3609 21.8649 73.7145 22.0467C75.0681 22.2284 76.2265 22.8624 77.1897 23.9485C78.1414 25.0127 79.1646 26.5843 80.2594 28.6634C78.8173 29.5345 77.385 30.3446 75.9625 31.0937L71.3011 33.5482C71.6698 34.2485 72.0886 34.6988 72.5575 34.8992C73.0483 35.088 73.596 35.0931 74.2008 34.9144C74.794 34.7139 75.583 34.3543 76.5678 33.8358ZM68.9155 28.2215C68.8188 28.3563 68.8701 28.6926 69.0695 29.2305C69.2689 29.7685 69.5247 30.3605 69.837 31.0067L71.544 30.1079C72.5726 29.5662 73.3109 29.1635 73.759 28.8996C73.2059 27.8491 72.6609 27.1857 72.124 26.9094C71.609 26.6215 70.9904 26.6677 70.2682 27.048C69.6774 27.3591 69.2264 27.7503 68.9155 28.2215Z" fill="#141B34"/>
<path d="M101.207 29.8398C97.6224 30.6967 94.7269 30.4988 92.5202 29.2463C90.3318 27.9639 88.789 25.4464 87.8919 21.6937C87.012 18.0132 87.357 15.0953 88.927 12.9398C90.497 10.7844 92.9058 9.31847 96.1533 8.5421C102.985 6.90887 107.215 9.49611 108.842 16.3038C109.664 19.7437 109.469 22.6513 108.257 25.0264C107.069 27.3957 104.719 29.0002 101.207 29.8398ZM100.044 25.6165C100.718 25.4555 101.257 25.2121 101.663 24.8863C102.062 24.5365 102.325 24.0413 102.452 23.4007C102.721 22.2937 102.589 20.6216 102.054 18.3844C101.53 16.1954 100.898 14.6681 100.157 13.8026C99.4106 12.913 98.358 12.6052 96.9994 12.8791C96.4942 12.9999 95.9793 13.1866 95.4548 13.4391C94.9486 13.6618 94.6463 13.8867 94.548 14.1136C94.3399 14.5194 94.2839 15.2957 94.38 16.4425C94.4945 17.5595 94.707 18.7675 95.0175 20.0665C95.5006 22.0872 96.0467 23.5206 96.6559 24.3667C97.0872 25.0011 97.5809 25.4171 98.1367 25.6148C98.6869 25.7885 99.3228 25.789 100.044 25.6165Z" fill="#141B34"/>
<path d="M118.383 4.13743L124.716 3.67283L125.444 26.1808L119.103 26.3858L118.383 4.13743Z" fill="#141B34"/>
<path d="M153.291 11.5994L146.831 25.0942C145.58 27.6866 144.522 29.5449 143.659 30.6691C142.792 31.8178 141.981 32.5871 141.224 32.9771C140.794 33.1894 140.139 33.3068 139.261 33.3291C138.408 33.3551 137.491 33.2969 136.512 33.1546C135.044 32.9412 133.888 32.6359 133.046 32.2386C133.107 31.6476 133.237 30.9291 133.435 30.0831C133.629 29.2616 133.83 28.566 134.038 27.9964C135.059 28.1947 136.059 28.365 137.038 28.5073C137.772 28.614 138.324 28.6818 138.695 28.7106C139.165 28.0542 139.617 27.3574 140.049 26.6204L137.537 26.1055L134.273 8.83581L140.918 9.80146L142.137 22.0503L142.073 22.7532L142.183 22.7692L146.645 10.6337L153.291 11.5994Z" fill="#141B34"/>
<path d="M189.185 26.4502C189.296 27.155 188.512 29.3267 186.835 32.9653L183.075 41.1186L177.314 38.4621L180.809 30.8817L181.648 29.0623C182.031 28.2313 182.181 27.7009 182.096 27.4712C181.999 27.2087 181.659 26.9428 181.075 26.6735L180.655 26.5208C179.938 26.2446 179.203 26.0964 178.45 26.0759C178.255 26.5579 177.883 27.3942 177.334 28.5846L173.574 36.7378L167.813 34.0814L171.308 26.5009L172.241 24.4795C172.562 23.7832 172.68 23.3202 172.595 23.0905C172.498 22.8279 172.158 22.562 171.574 22.2927L171.154 22.14C170.515 21.8725 169.796 21.7182 168.998 21.677L164.073 32.3571L158.312 29.7007L165.458 14.2028L170.141 16.3621L169.583 19.1685C170.78 18.522 171.964 18.1968 173.137 18.1929C174.321 18.1666 175.406 18.3812 176.395 18.8369C177.226 19.2201 177.955 19.7061 178.582 20.2949C179.232 20.8941 179.599 21.4856 179.684 22.0695C179.726 22.3338 179.667 22.7562 179.508 23.3366C180.631 22.7921 181.746 22.5299 182.853 22.5503C183.961 22.5706 184.975 22.793 185.896 23.2177C186.727 23.6008 187.456 24.0869 188.083 24.6757C188.733 25.2749 189.1 25.8664 189.185 26.4502Z" fill="#141B34"/>
<path d="M210.78 41.0779C212.114 42.2582 212.776 43.6371 212.767 45.2146C212.793 46.7899 211.839 48.6703 209.904 50.8557C208.462 52.4855 207.124 53.6796 205.891 54.438C204.675 55.178 203.715 55.5343 203.013 55.507C202.31 55.4797 201.359 55.1171 200.16 54.4192C198.98 53.7377 197.853 52.9215 196.778 51.9707C196.464 51.692 195.952 51.2063 195.244 50.5135L191.752 54.4583L186.83 50.4479L201.756 33.5853L205.645 37.0278L204.372 39.4183C205.46 39.1593 206.554 39.1539 207.656 39.4022C208.776 39.6668 209.817 40.2254 210.78 41.0779ZM201.112 49.7618C201.447 49.794 201.964 49.5084 202.663 48.9051C203.378 48.2833 204.015 47.6576 204.572 47.0279C205.49 45.9908 206.041 45.1074 206.224 44.3779C206.408 43.6483 206.11 42.9393 205.333 42.2508C204.777 41.759 204.209 41.3555 203.629 41.0404L198.17 47.2077L198.874 47.9795C199.099 48.2112 199.433 48.5237 199.878 48.9171C200.507 49.4745 200.919 49.7561 201.112 49.7618Z" fill="#141B34"/>
<path d="M225.524 54.3147C225.007 53.6512 224.783 52.9007 224.852 52.0634C224.937 51.2455 225.291 50.5935 225.915 50.1073C226.54 49.6211 227.259 49.4375 228.073 49.5564C228.901 49.6949 229.574 50.0959 230.09 50.7594C230.607 51.423 230.823 52.1637 230.739 52.9815C230.655 53.7994 230.3 54.4514 229.676 54.9376C229.051 55.4238 228.332 55.6074 227.519 55.4885C226.705 55.3695 226.04 54.9783 225.524 54.3147ZM221.895 53.0962L225.792 58.1021L212.326 68.5858L208.429 63.5798L221.895 53.0962Z" fill="#141B34"/>
<path d="M224.262 87.1885C222.724 85.741 221.369 83.9283 220.197 81.7505C218.884 79.3113 218.509 77.1537 219.072 75.2776C219.669 73.4115 221.274 71.7751 223.887 70.3683C225.172 69.6766 226.529 69.1708 227.958 68.8511C229.408 68.5196 230.457 68.4326 231.104 68.5901C231.851 68.7778 232.756 69.4421 233.82 70.583C234.895 71.7457 235.82 73.0458 236.593 74.4831C237.402 75.9858 238.086 77.5698 238.646 79.235C238.078 79.4845 237.394 79.7541 236.595 80.0438C235.83 80.3436 235.134 80.5914 234.51 80.7873C233.87 79.3902 233.228 78.0927 232.583 76.8949C231.95 75.7188 231.48 75.0027 231.173 74.7463C231.014 74.6073 230.48 74.6843 229.57 74.9773C228.672 75.2921 227.864 75.643 227.145 76.0298C226.187 76.5457 225.517 77.0749 225.135 77.6176C224.786 78.1704 224.672 78.7935 224.793 79.4871C224.913 80.1806 225.243 81.0283 225.783 82.0301C226.017 82.4656 226.577 83.4004 227.461 84.8345L224.262 87.1885Z" fill="#141B34"/>
<path d="M236.162 105.516C234.053 106.146 232.334 105.923 231.007 104.849C229.686 103.798 228.657 102.04 227.921 99.5753C227.404 97.8453 227.058 95.7803 226.883 93.3803C227.371 93.2861 228.079 93.1909 229.005 93.0949C229.962 93.0154 230.696 92.9641 231.205 92.941C231.318 93.8366 231.482 94.82 231.699 95.891C231.939 96.955 232.169 97.8543 232.389 98.5889C232.58 99.2288 232.732 99.6092 232.846 99.7301C232.877 99.7468 232.943 99.7527 233.045 99.7481C233.178 99.7601 233.303 99.7484 233.422 99.713C233.896 99.5714 234.127 99.1796 234.116 98.5376C234.107 98.3338 234.092 97.5509 234.072 96.1887C234.053 94.8264 234.385 93.6044 235.068 92.5225C235.782 91.4573 236.839 90.7158 238.237 90.2981C238.971 90.0786 239.839 90.0002 240.838 90.0629C241.838 90.1257 242.513 90.3112 242.863 90.6196C243.138 90.8473 243.533 91.478 244.048 92.5114C244.587 93.5378 244.994 94.5132 245.271 95.4374C245.858 97.4043 246.307 99.4256 246.618 101.501C246.191 101.629 245.45 101.785 244.396 101.971C243.365 102.15 242.705 102.231 242.416 102.214C242.075 100.122 241.721 98.4598 241.353 97.2275C241.161 96.5876 241.002 96.1835 240.874 96.0152C240.836 95.9748 240.751 95.9487 240.618 95.9367C240.509 95.9176 240.372 95.9329 240.206 95.9824C239.874 96.0815 239.669 96.259 239.591 96.5148C239.489 96.7776 239.454 97.3947 239.486 98.366C239.496 99.5245 239.449 100.532 239.344 101.39C239.245 102.271 238.95 103.095 238.456 103.862C237.969 104.653 237.205 105.204 236.162 105.516Z" fill="#141B34"/>
<circle cx="100" cy="115" r="24" stroke="#E5AB4E" stroke-width="4"/>
<circle cx="74" cy="87" r="24" stroke="#0780C4" stroke-width="4"/>
<mask id="path-15-inside-1_23_294" fill="white">
<path d="M126 115C126 119.391 124.888 123.71 122.768 127.554C120.648 131.399 117.589 134.644 113.876 136.988C110.163 139.331 105.917 140.696 101.534 140.955C97.1515 141.214 92.7744 140.359 88.8112 138.469C84.848 136.58 81.4278 133.718 78.8696 130.149C76.3114 126.581 74.6984 122.423 74.1811 118.063C73.6638 113.703 74.259 109.283 75.9113 105.216C77.5635 101.148 80.219 97.5648 83.63 94.8004L86.1372 97.8942C83.2486 100.235 80.9999 103.269 79.6007 106.714C78.2015 110.159 77.6974 113.902 78.1355 117.594C78.5736 121.286 79.9395 124.807 82.1059 127.829C84.2723 130.851 87.1687 133.275 90.5248 134.875C93.881 136.475 97.5877 137.199 101.299 136.979C105.011 136.76 108.607 135.604 111.751 133.62C114.895 131.636 117.486 128.887 119.281 125.632C121.076 122.376 122.018 118.718 122.018 115H126Z"/>
</mask>
<path d="M126 115C126 119.391 124.888 123.71 122.768 127.554C120.648 131.399 117.589 134.644 113.876 136.988C110.163 139.331 105.917 140.696 101.534 140.955C97.1515 141.214 92.7744 140.359 88.8112 138.469C84.848 136.58 81.4278 133.718 78.8696 130.149C76.3114 126.581 74.6984 122.423 74.1811 118.063C73.6638 113.703 74.259 109.283 75.9113 105.216C77.5635 101.148 80.219 97.5648 83.63 94.8004L86.1372 97.8942C83.2486 100.235 80.9999 103.269 79.6007 106.714C78.2015 110.159 77.6974 113.902 78.1355 117.594C78.5736 121.286 79.9395 124.807 82.1059 127.829C84.2723 130.851 87.1687 133.275 90.5248 134.875C93.881 136.475 97.5877 137.199 101.299 136.979C105.011 136.76 108.607 135.604 111.751 133.62C114.895 131.636 117.486 128.887 119.281 125.632C121.076 122.376 122.018 118.718 122.018 115H126Z" stroke="#E5AB4E" stroke-width="8" mask="url(#path-15-inside-1_23_294)"/>
<path d="M151.333 87C151.333 99.8865 140.887 110.333 128 110.333C115.113 110.333 104.667 99.8865 104.667 87C104.667 74.1133 115.113 63.6666 128 63.6666C140.887 63.6666 151.333 74.1133 151.333 87Z" stroke="#141B34" stroke-width="4"/>
<path d="M135 89.3333C135 93.1994 131.866 96.3333 128 96.3333C124.134 96.3333 121 93.1994 121 89.3333C121 85.4672 124.134 82.3333 128 82.3333C131.866 82.3333 135 85.4672 135 89.3333Z" stroke="#141B34" stroke-width="4"/>
<path d="M104.667 84.6666C110.725 87.0084 115.99 88.5586 120.995 89.317M151.333 84.6739C145.284 87.0291 140.021 88.5822 135.005 89.3333" stroke="#141B34" stroke-width="4"/>
<circle cx="157" cy="115" r="24" stroke="#00A554" stroke-width="4"/>
<circle cx="182" cy="86" r="24" stroke="#F2314D" stroke-width="4"/>
<mask id="path-21-inside-2_23_294" fill="white">
<path d="M183 115C183 110.744 181.955 106.552 179.957 102.794C177.959 99.0358 175.068 95.8256 171.54 93.4454L169.325 96.7287C172.316 98.7464 174.766 101.468 176.46 104.653C178.154 107.839 179.04 111.392 179.04 115H183Z"/>
</mask>
<path d="M183 115C183 110.744 181.955 106.552 179.957 102.794C177.959 99.0358 175.068 95.8256 171.54 93.4454L169.325 96.7287C172.316 98.7464 174.766 101.468 176.46 104.653C178.154 107.839 179.04 111.392 179.04 115H183Z" stroke="#00A554" stroke-width="8" mask="url(#path-21-inside-2_23_294)"/>
</svg>
